# xmcd
#
# Track frame offsets:
#	150
#	19624
#	43699
#	66606
#	86631
#	112431
#	143900
#	164778
#	187184
#	209938
#
# Disc length: 3114 seconds
#
# Revision: 1
# Processed by: cddbd v1.5.2PL0 Copyright (c) Steve Scherf et al.
# Submitted via: EZCDAudioConverter 8.0.2.1
#
DISCID=aa0c280a
DTITLE=Nhật Hạ - Như Chút Nắng Hư Hao
DYEAR=2009
DGENRE=World Pop
TTITLE0=Nhật Hạ - Vũng lầy của chúng ta
TTITLE1=Nhật Hạ - Một mình
TTITLE2=Tuấn Ngọc - Xa cách
TTITLE3=Nhật Hạ - Màu nắng lạ
TTITLE4=Nhật Hạ - Trái tim tội lỗi
TTITLE5=Đức Tuấn - Đưa em tìm động hoa vàng
TTITLE6=Nhật Hạ - Em hãy ngủ đi
TTITLE7=Nhật Hạ - Như Chút Nắng Hư Hao
TTITLE8=Quang Minh - Mai em đi
TTITLE9=Nhật Hạ - Phượng yêu
EXTD=
EXTT0=
EXTT1=
EXTT2=
EXTT3=
EXTT4=
EXTT5=
EXTT6=
EXTT7=
EXTT8=
EXTT9=
PLAYORDER=
